<mxfile host="app.diagrams.net" modified="2023-11-13T02:51:45.197Z" agent="Mozilla/5.0 (Macintosh; Intel Mac OS X 10_15_7) AppleWebKit/605.1.15 (KHTML, like Gecko) Version/17.0 Safari/605.1.15" version="22.1.0" etag="qTjlSX4xAxJZQFRA7n2b" type="github">
  <diagram name="第 1 页" id="Myv8P8naIu1HONoMITfO">
    <mxGraphModel>
      <root>
        <mxCell id="0" />
        <mxCell id="1" parent="0" />
      </root>
    </mxGraphModel>
  </diagram>
</mxfile>
